<svg width="37" height="37" viewBox="0 0 37 37" fill="none" xmlns="http://www.w3.org/2000/svg">
<circle cx="18.5" cy="18.5" r="18.5" fill="#E5F1FF"/>
<path d="M28.5419 11.4341C28.4096 11.2965 28.2522 11.1874 28.0788 11.1129C27.9053 11.0384 27.7193 11 27.5315 11C27.3436 11 27.1576 11.0384 26.9842 11.1129C26.8108 11.1874 26.6534 11.2965 26.5211 11.4341L15.919 22.3815L11.4647 17.7736C11.3273 17.6368 11.1652 17.5292 10.9875 17.457C10.8098 17.3848 10.6201 17.3494 10.4291 17.3528C10.2382 17.3562 10.0498 17.3983 9.8746 17.4768C9.69945 17.5553 9.54101 17.6686 9.40832 17.8103C9.27563 17.9519 9.1713 18.1191 9.10128 18.3024C9.03125 18.4856 8.99691 18.6812 9.00022 18.8781C9.00352 19.075 9.0444 19.2694 9.12053 19.45C9.19666 19.6306 9.30654 19.794 9.4439 19.9308L14.9086 25.5659C15.0409 25.7035 15.1983 25.8126 15.3717 25.8871C15.5451 25.9616 15.7311 26 15.919 26C16.1069 26 16.2929 25.9616 16.4663 25.8871C16.6397 25.8126 16.7971 25.7035 16.9294 25.5659L28.5419 13.5913C28.6863 13.4539 28.8016 13.2871 28.8804 13.1014C28.9593 12.9158 29 12.7153 29 12.5127C29 12.31 28.9593 12.1096 28.8804 11.9239C28.8016 11.7383 28.6863 11.5715 28.5419 11.4341Z" fill="#3F82FF"/>
</svg>
