<svg width="156" height="88" viewBox="0 0 156 88" fill="none" xmlns="http://www.w3.org/2000/svg">
<circle cx="130" cy="61.1" r="26" fill="#5B716A"/>
<circle cx="29.9" cy="29.9" r="29.9" fill="#F7D14A"/>
<path fill-rule="evenodd" clip-rule="evenodd" d="M30.2941 27.4545C25.1167 27.3976 21.1443 27.552 18.3686 27.926C17.6788 28.048 16.9891 28.2675 16.3242 28.5602C15.6511 28.8773 15.1857 29.2188 14.9281 29.5928C14.3464 30.4709 13.9059 35.7963 13.615 45.5772C13.3907 52.1141 13.3408 56.2769 13.4488 58.0656C13.5569 59.8543 13.9059 61.025 14.4876 61.5617C15.0361 62.1064 17.0306 62.5617 20.4628 62.9357C23.895 63.3097 27.1693 63.4886 30.2774 63.4642C33.3855 63.4398 34.79 63.1796 34.4991 62.6837C34.1335 62.017 32.1224 61.6836 28.4658 61.6836C26.5959 61.6836 25.3161 61.6592 24.6264 61.6186C22.69 61.4966 21.5016 60.9763 21.0612 60.0575C20.6955 59.3014 20.5127 57.2688 20.5127 53.9353V51.4393C20.5127 50.984 20.5376 50.3335 20.5958 49.5042C20.654 48.6749 20.6789 48.1383 20.6789 47.9107C20.6789 47.683 20.762 47.3171 20.9282 46.8212C21.0944 46.3171 21.2025 46.0407 21.2606 45.9756C21.3105 45.9106 21.5016 45.7642 21.834 45.5366C22.1665 45.3089 22.3992 45.2114 22.5487 45.2276C22.69 45.2439 23.0391 45.2357 23.5875 45.1951C24.136 45.1544 24.5599 45.1544 24.8507 45.1951C25.1416 45.2357 25.6901 45.3008 26.4962 45.3821C28.4325 45.5528 29.7788 45.5854 30.5268 45.4797C31.2747 45.374 31.6487 45.1138 31.6487 44.6991C31.6487 43.9511 29.9284 43.5771 26.4962 43.5771H26.0557H24.6347C24.3438 43.5771 23.9781 43.5527 23.5377 43.4877C23.0972 43.4308 22.8064 43.3901 22.6568 43.3657C22.5072 43.3495 22.3077 43.2194 22.0501 42.9917C21.7925 42.7641 21.6429 42.6015 21.6097 42.4958C21.5764 42.3982 21.5099 42.1055 21.4185 41.6258C21.3271 41.1461 21.2939 40.7721 21.3105 40.5038L21.3135 40.455L21.3135 40.455C21.3309 40.1748 21.3623 39.6707 21.3936 38.9428C21.4268 38.1785 21.4684 37.5362 21.5266 37.0403C21.5847 36.5362 21.6678 35.7231 21.7759 34.6011C21.8091 34.2271 21.8507 33.9588 21.8839 33.7881L22.3742 29.105H30.6514C36.1363 29.105 38.7125 28.796 38.3801 28.17C38.164 27.7553 35.4631 27.5195 30.2941 27.4545ZM15.8007 44.4715C16.3076 44.4715 16.5652 44.6178 16.5652 44.9105C16.5652 45.1138 16.3575 45.3821 15.9669 45.7236C15.3104 46.2195 14.978 46.1382 14.978 45.4715C14.978 45.187 15.0444 44.943 15.194 44.756C15.3436 44.569 15.5431 44.4715 15.8007 44.4715ZM16.1248 49.0245C15.7924 48.3578 15.5181 48.0814 15.3021 48.179C15.086 48.2847 14.9696 48.7318 14.9696 49.5205C14.9696 49.8945 15.0527 50.1628 15.219 50.3335C15.3852 50.5043 15.5763 50.5043 15.7924 50.3335C16.3076 50.0083 16.4157 49.5693 16.1248 49.0245ZM16.183 59.4559C16.0001 59.4559 15.9087 59.0006 15.9087 58.0818C15.9087 57.7891 15.9253 57.5371 15.9669 57.3257C16.0417 56.537 16.1663 56.4151 16.3492 56.9517C16.4572 57.2444 16.5154 57.6021 16.5154 58.0168C16.5154 58.9762 16.399 59.4559 16.183 59.4559Z" fill="black"/>
<path fill-rule="evenodd" clip-rule="evenodd" d="M39.9756 31.3571C40.1584 30.6091 40.549 30.105 41.1557 29.8611C41.7623 29.609 42.959 29.422 44.7458 29.3001L49.0755 28.9911L49.1337 43.2926C49.2085 52.8214 49.4079 58.5046 49.7404 60.334C49.998 61.6267 50.3636 62.4072 50.8373 62.6755C51.311 62.9438 52.5742 63.1471 54.6186 63.269C60.6519 63.5617 63.7185 64.1227 63.8265 64.952C63.8265 65.074 63.7933 65.1797 63.7185 65.261C63.3528 65.635 59.663 65.6269 52.6407 65.2285C45.6267 64.8301 41.5629 64.4073 40.4659 63.952C40.1335 63.83 39.9008 62.6105 39.7512 60.3014C39.6016 57.9924 39.5352 54.0247 39.5352 48.4066C39.5352 38.2517 39.6764 32.5685 39.9756 31.3571ZM42.4937 56.9598C43.1169 56.1305 43.1834 55.2931 42.7097 54.4638C42.4189 53.9272 42.1862 53.6751 42.02 53.7158C41.8538 53.7564 41.6626 54.0898 41.4466 54.7158C41.0061 56.0899 40.9895 57.0086 41.3884 57.4639C41.6876 57.7485 42.0532 57.5777 42.4937 56.9598ZM47.0976 42.6584C47.3553 42.6584 47.4799 42.9674 47.4799 43.5934C47.4799 43.8454 47.3968 44.0568 47.2306 44.2194C47.0644 44.3902 46.8733 44.4715 46.6572 44.4715C46.1503 44.4715 46.0173 44.2032 46.2749 43.6584C46.5325 42.9917 46.8068 42.6584 47.0976 42.6584Z" fill="black"/>
<path fill-rule="evenodd" clip-rule="evenodd" d="M72.3198 27.8041C68.4804 27.7634 66.1368 27.861 65.2975 28.113C65.0482 28.4057 64.9152 28.6497 64.9318 28.861C64.8986 29.609 66.544 29.983 69.8682 29.983C72.2117 29.983 73.583 30.105 73.9819 30.357C74.3808 30.5278 74.4722 31.105 74.2561 32.1051C73.8572 33.8938 73.4001 37.089 72.8849 41.6909C72.3696 46.2927 71.9874 50.6262 71.7297 54.7077L71.1812 62.578L67.8903 62.643H66.7933C65.8376 62.6837 65.3889 62.7731 65.4221 62.895C65.4221 63.017 65.8127 63.269 66.5773 63.643C67.9319 64.2691 71.5137 64.391 77.3226 64.017C82.5084 63.6837 86.1317 63.326 88.1761 62.952C90.2204 62.578 91.2426 62.0576 91.2426 61.3909C91.2426 60.8137 89.3561 60.708 85.5915 61.082L79.9404 61.708L80.4889 58.277C80.8546 56.0248 81.0125 50.7644 80.9792 42.4795L80.8712 29.9912H85.5832C86.8963 29.9912 88.068 29.9099 89.0902 29.7391C90.1124 29.5684 90.6941 29.3651 90.8188 29.1131C90.9517 28.861 88.8575 28.5927 84.5444 28.3C80.2313 28.0155 76.1592 27.8447 72.3198 27.8041ZM78.295 60.3909C78.4362 60.4315 78.511 60.5372 78.511 60.6998C78.511 60.9519 78.2867 61.1958 77.8296 61.4316C77.3725 61.6592 76.7908 61.8137 76.101 61.895C75.1121 62.0657 74.4722 62.0657 74.1813 61.895C73.8904 61.7324 73.7409 61.2934 73.7409 60.586C73.7409 59.8299 73.8073 59.4152 73.9569 59.3339C74.1065 59.2526 74.4306 59.4396 74.9459 59.8949C75.2367 60.1388 75.5691 60.3177 75.9348 60.4234C76.3005 60.521 76.6329 60.5535 76.9237 60.5128C77.2229 60.4722 77.4805 60.4315 77.7215 60.3909C77.9542 60.3502 78.1454 60.3502 78.295 60.3909ZM76.9237 30.918C76.9237 30.666 76.8406 30.4465 76.6744 30.2595C76.5082 30.0725 76.3171 29.9749 76.101 29.9749C75.4777 29.9749 75.3863 30.3733 75.8268 31.162C76.1176 31.5766 76.3586 31.788 76.5415 31.788C76.7991 31.7961 76.9237 31.5034 76.9237 30.918ZM78.9847 50.8376C79.1842 50.8376 79.2839 51.2767 79.2839 52.1466C79.2839 52.5694 79.1593 52.9027 78.9349 53.1467C78.6939 53.3987 78.3947 53.5207 78.029 53.5207C77.5138 53.5207 77.2395 53.4394 77.2063 53.2686C77.1648 53.106 77.331 52.732 77.6966 52.1466C78.3531 51.2767 78.7853 50.8376 78.9847 50.8376ZM79.2257 45.5935C79.259 43.6828 79.1343 42.699 78.8435 42.6584C78.6606 42.6584 78.4196 42.9267 78.1288 43.4714C77.8379 44.0162 77.9459 44.9918 78.4612 46.4065C78.7936 47.3253 78.993 47.805 79.0678 47.8456C79.1759 47.8456 79.2257 47.0895 79.2257 45.5935ZM78.8435 32.4222C78.6939 32.5116 78.6025 32.1945 78.5692 31.4872C78.5692 31.1538 78.5858 30.8611 78.6274 30.6091C78.7022 30.1944 78.8102 30.0887 78.9598 30.3001C79.1011 30.4221 79.1759 30.6741 79.1759 31.0481C79.1759 31.8856 79.0595 32.3409 78.8435 32.4222Z" fill="black"/>
<path fill-rule="evenodd" clip-rule="evenodd" d="M110.207 29.9912C101.473 29.9912 97.1015 30.292 97.1015 30.8937C97.1015 31.4953 99.9104 31.7961 105.561 31.7961H113.947L111.753 35.2272C110.249 37.4712 107.598 41.1543 103.8 46.2764C101.423 49.5205 99.4118 52.4393 97.7663 55.0167C96.1292 57.6021 95.0405 59.3583 94.5086 60.2933C93.9768 61.2283 93.528 61.8218 93.1623 62.0739C92.6138 62.4885 92.3396 63.139 92.3396 64.0089C92.3396 64.5537 93.2787 64.9114 95.1651 65.074C97.0433 65.2447 101.132 65.326 107.415 65.326C117.504 65.326 122.548 65.0171 122.548 64.391C122.548 63.9764 120.553 63.643 116.573 63.391C112.584 63.1471 108.769 63.1064 105.113 63.269L101.656 63.5211L109.442 52.8458C112.293 48.9351 115.318 44.4715 118.517 39.455C121.717 34.4385 123.313 31.6173 123.313 30.9912C123.313 30.3245 118.941 29.9912 110.207 29.9912ZM99.0129 61.708C98.722 62.2853 98.1901 62.578 97.4256 62.578C97.1347 62.578 96.8688 62.4967 96.6278 62.3422C96.3868 62.1714 96.2704 61.9682 96.2704 61.7161C96.2704 61.4641 96.4283 61.2446 96.7607 61.0576C97.0932 60.8706 97.4754 60.773 97.9159 60.773C98.722 60.8543 99.0877 61.1714 99.0129 61.708ZM102.636 54.5207C102.636 53.9353 102.412 53.4881 101.955 53.1792C101.498 52.8702 101.107 52.9027 100.775 53.2767C100.301 53.7727 100.135 54.2443 100.284 54.6833C100.434 55.1224 100.833 55.3419 101.489 55.3419C101.78 55.3419 102.046 55.2606 102.287 55.0898C102.52 54.9191 102.636 54.7321 102.636 54.5207ZM103.891 49.9026C104.115 49.9026 104.224 50.2116 104.224 50.8376C104.224 51.0897 104.157 51.301 103.999 51.4555C103.85 51.6263 103.65 51.7076 103.392 51.7076C102.919 51.7076 102.794 51.423 103.01 50.8376C103.309 50.2116 103.6 49.9026 103.891 49.9026ZM114.811 36.2923C115.65 35.1703 115.875 34.5849 115.468 34.5442C115.027 34.5442 114.47 34.9995 113.797 35.9183C113.124 36.837 112.908 37.4387 113.166 37.7314C113.382 37.9346 113.93 37.4549 114.811 36.2923ZM120.213 32.0482C120.703 32.2108 120.952 32.3978 120.952 32.6092C120.952 33.4791 120.612 33.9832 119.939 34.1133C119.265 34.2353 118.492 33.9426 117.612 33.2352C117.354 33.0238 117.171 32.8775 117.063 32.7962C116.556 32.3815 116.332 32.1051 116.407 31.9831C116.44 31.8612 117.096 31.7961 118.376 31.7961C119.107 31.7961 119.722 31.8856 120.213 32.0482Z" fill="black"/>
<path fill-rule="evenodd" clip-rule="evenodd" d="M131.748 33.7962C132.296 32.4222 132.845 31.3002 133.393 30.4221C133.942 29.544 134.34 29.17 134.598 29.3001C134.856 29.3814 135.288 30.1782 135.911 31.6742C136.534 33.1702 137.133 34.9182 137.723 36.9183C139.368 42.2844 141.762 48.9026 144.903 56.7728C146.258 60.2283 146.623 61.9357 146 61.895C145.742 61.895 145.343 61.6267 144.795 61.082C144.355 60.6673 143.981 60.1551 143.673 59.5534C143.366 58.9518 143.208 58.464 143.208 58.0818C143.208 56.5858 142.717 55.3581 141.728 54.3987C140.74 53.4394 139.426 52.919 137.781 52.8377C136.028 52.7157 134.897 53.0247 134.382 53.7727C133.867 54.5207 133.576 56.2931 133.501 59.0819L133.443 61.7649L128.781 61.5779C126.254 61.4966 124.867 61.3096 124.617 61.0169C124.401 60.7649 124.376 60.1226 124.559 59.0819C125.141 56.2525 126.271 51.8946 127.933 46C129.604 40.1136 130.875 36.0402 131.748 33.7962ZM129.279 59.8299C129.861 59.5372 130.177 59.3502 130.21 59.2689C130.243 59.1876 130.16 59.1225 129.961 59.0819C129.761 59.0412 129.329 59.0168 128.673 59.0168C128.091 59.0168 127.576 59.0981 127.135 59.2689C126.695 59.4396 126.479 59.6429 126.479 59.8949C126.479 60.147 126.52 60.334 126.612 60.4559C126.703 60.5779 126.861 60.6429 127.077 60.6429C127.293 60.6429 127.576 60.5779 127.925 60.4559C128.282 60.3258 128.731 60.1226 129.279 59.8299ZM131.523 43.3495C131.997 44.0975 131.93 44.4715 131.307 44.4715C131.091 44.4715 130.9 44.3902 130.725 44.2276C130.559 44.0568 130.476 43.8536 130.476 43.6015C130.476 42.9755 130.592 42.6665 130.809 42.6665C131.033 42.6665 131.266 42.8942 131.523 43.3495ZM133.726 34.1702C133.759 34.8776 133.85 35.1947 134 35.1052C134.216 35.0239 134.332 34.5849 134.332 33.7962C134.332 33.4222 134.274 33.1539 134.166 32.9832C133.983 32.8206 133.858 32.9425 133.784 33.3572C133.742 33.5686 133.726 33.8369 133.726 34.1702ZM138.496 45.4065C139.443 48.1058 139.942 49.8376 139.975 50.5856C139.975 50.9189 139.759 51.1954 139.343 51.4067C138.92 51.61 138.346 51.7157 137.615 51.7157C136.26 51.7157 135.496 51.3092 135.313 50.4961C135.13 49.6831 135.404 47.8375 136.136 44.9674L137.016 41.3494L138.496 45.4065Z" fill="black"/>
</svg>
